{"title":"Prince ( 2010 ) HDRip 720p x264 AAC [ TaRa ].mkv","uid":16034949,"size":1146069111,"categoryP":"video","categoryS":"hd___movies","magnet":"?xt=urn:btih:f7731159d9cbecf18e48705d9701db9875de5601&amp;dn=Prince+%28+2010+%29+HDRip+720p+x264+AAC+%5B+TaRa+%5D.mkv&amp;tr=udp%3A%2F%2Ftracker.leechers-paradise.org%3A6969&amp;tr=udp%3A%2F%2Fzer0day.ch%3A1337&amp;tr=udp%3A%2F%2Fopen.demonii.com%3A1337&amp;tr=udp%3A%2F%2Ftracker.coppersurfer.tk%3A6969&amp;tr=udp%3A%2F%2Fexodus.desync.com%3A6969","seeders":0,"leechers":1,"uploader":"MdTaRa","files":1,"time":1476470495,"description":"===================================================================\r\nGeneral\r\nComplete name               : Prince ( 2010 ) HDRip 720p x264 AAC [ TaRa ].mkv\r\nFormat                      : Matroska\r\nFormat version              : Version 4 / Version 2\r\nFile size                   : 1.07 GiB\r\nDuration                    : 2h 16mn\r\nOverall bit rate            : 1 118 Kbps\r\n=====================================================================\r\nVideo\r\nID                          : 1\r\nFormat                      : AVC\r\nFormat/Info                 : Advanced Video Codec\r\nFormat profile              :   \r\nFormat settings, CABAC      : Yes\r\nFormat settings, ReFrames   : 4 frames\r\nCodec ID                    : V_MPEG4/ISO/AVC\r\nDuration                    : 2h 16mn\r\nBit rate                    : 1 020 Kbps\r\nWidth                       : 1 280 pixels\r\nHeight                      : 562 pixels\r\nDisplay aspect ratio        : 2.25:1\r\nFrame rate mode             : Constant\r\nFrame rate                  : 25.000 fps\r\nColor space                 : YUV\r\nChroma subsampling          : 4:2:0\r\nBit depth                   : 8 bits\r\nScan type                   : Progressive\r\nBits/(Pixel*Frame)          : 0.057\r\nStream size                 : 966 MiB (88%)\r\nTitle                       : .....::::: TaRa :::::.....\r\nLanguage                    : Hindi\r\nDefault                     : Yes\r\nForced                      : No\r\n=====================================================================\r\nAudio\r\nID                          : 2\r\nFormat                      : AAC\r\nFormat/Info                 : Advanced Audio Codec\r\nFormat profile              : HE-AAC / LC\r\nCodec ID                    : A_AAC\r\nDuration                    : 2h 16mn\r\nBit rate                    : 128 Kbps\r\nChannel(s)                  : 6 channels\r\nChannel positions           : Front: L C R, Side: L R, LFE\r\nSampling rate               : 44.1 KHz / 22.05 KHz\r\nFrame rate                  : 21.533 fps (1024 spf)\r\nCompression mode            : Lossy\r\nDelay relative to video     : -127ms\r\nStream size                 : 125 MiB (11%)\r\nTitle                       : .....::::: TaRa :::::.....\r\nLanguage                    : Hindi\r\nDefault                     : Yes\r\nForced                      : No\r\n======================================================================== \nhttps://extraimago.com/image/w4fd \nhttps://extraimago.com/image/w4fh \nhttps://extraimago.com/image/w4fb \nhttps://extraimago.com/image/w4f3 \nhttps://extraimago.com/image/w4f9 \nhttps://extraimago.com/image/w4fM \nhttps://extraimago.com/image/w4fU \nhttps://extraimago.com/image/w4fz \nhttps://extraimago.com/image/w4f0 \nhttps://extraimago.com/image/w4fJ \nhttps://extraimago.com/image/w4fK \nhttps://extraimago.com/image/w4fZ \nhttps://extraimago.com/image/w4fe \nhttps://extraimago.com/image/w4f4 \nhttps://extraimago.com/image/w4fB \nhttps://extraimago.com/image/w4fC \nhttps://extraimago.com/image/w4fY \nhttps://extraimago.com/image/w4fp \nhttps://extraimago.com/image/w4fr \nhttps://extraimago.com/image/w4fG \nhttps://extraimago.com/image/w4fP \nhttps://extraimago.com/image/w4fX \nhttps://extraimago.com/image/w4fg \nhttps://extraimago.com/image/w4f5","torrent":{"xt":"urn:btih:f7731159d9cbecf18e48705d9701db9875de5601","amp;dn":"Prince+%28+2010+%29+HDRip+720p+x264+AAC+%5B+TaRa+%5D.mkv","amp;tr":["udp%3A%2F%2Ftracker.leechers-paradise.org%3A6969","udp%3A%2F%2Fzer0day.ch%3A1337","udp%3A%2F%2Fopen.demonii.com%3A1337","udp%3A%2F%2Ftracker.coppersurfer.tk%3A6969","udp%3A%2F%2Fexodus.desync.com%3A6969"],"infoHash":"f7731159d9cbecf18e48705d9701db9875de5601","infoHashBuffer":{"type":"Buffer","data":[247,115,17,89,217,203,236,241,142,72,112,93,151,1,219,152,117,222,86,1]},"announce":[],"urlList":[]}}